<?xml version="1.0" encoding="UTF-8" standalone="no"?>
<!-- Created with Inkscape (http://www.inkscape.org/) -->

<svg
   width="128"
   height="128"
   viewBox="0 0 256 256"
   version="1.1"
   id="svg114"
   xmlns="http://www.w3.org/2000/svg"
   xmlns:svg="http://www.w3.org/2000/svg">
  <g
     id="layer1"
     style="display:inline">
    <path
       id="path2994"
       style="fill:#242424;stroke:#242424;stroke-width:2.0px;"
       d="M 130.56445 3.6113281 C 64.227148 3.3816654 25.761719 58.328753 25.761719 112.25977 C 25.761719 134.4511 32.54975 152.96728 43.484375 167.66992 C 36.884891 173.48688 30.327759 177.88616 25.085938 177.96094 C 16.083475 178.08935 5.7572257 177.45491 2.9570312 187.08789 C -0.73110205 199.77582 6.3317126 207.94727 22.626953 207.94727 C 36.605057 207.94727 48.452378 196.24165 57.265625 182.45898 C 77.340453 199.83106 104.29164 208.82031 129.91016 208.82031 C 133.48962 208.82031 137.22927 208.61965 141.03906 208.32031 C 133.20179 214.48859 125.19157 218.89225 118.01367 218.7793 C 106.36144 218.59589 92.29052 216.83447 88.666016 228.29883 C 83.892138 243.39871 93.03719 252.7959 114.12695 253.125 C 142.21223 253.56329 161.22589 226.83991 171.58203 203.70703 C 213.22809 194.93046 254.71484 177.91016 254.71484 177.91016 C 216.35605 192.60418 245.77839 20.057286 150.00586 5.1835938 C 143.28509 4.1398455 136.80129 3.6329204 130.56445 3.6113281 z M 86.568359 45.439453 A 26.639466 50.269642 9.4524761 0 0 62.164062 84.443359 A 26.639466 50.269642 9.4524761 0 0 67.21875 134.26562 C 42.416133 118.40676 32.966797 85.115234 32.966797 85.115234 C 32.966797 85.115234 51.92675 46.819182 86.568359 45.439453 z M 103.15625 47.564453 C 139.97319 58.478907 169.56055 107.1582 169.56055 107.1582 C 169.56055 107.1582 128.2099 147.5066 87.982422 141.99805 A 26.639466 50.269642 9.4524761 0 0 112.85742 102.82812 A 26.639466 50.269642 9.4524761 0 0 103.15625 47.564453 z M 87.292969 52.912109 A 7.2684775 17.369063 24.058472 0 1 89.525391 53.886719 A 7.2684775 17.369063 24.058472 0 1 86.839844 74.566406 A 7.2684775 17.369063 24.058472 0 1 73.378906 84.207031 A 7.2684775 17.369063 24.058472 0 1 76.0625 63.525391 A 7.2684775 17.369063 24.058472 0 1 87.292969 52.912109 Z" />
  </g>
</svg>
